G04 EAGLE Gerber RS-274X export*
G75*
%MOMM*%
%FSLAX34Y34*%
%LPD*%
%INTop Copper*%
%IPPOS*%
%AMOC8*
5,1,8,0,0,1.08239X$1,22.5*%
G01*
%ADD10R,0.601900X2.052400*%
%ADD11R,0.280000X0.430000*%
%ADD12R,0.250000X0.350000*%
%ADD13R,1.153600X1.153600*%
%ADD14C,0.934400*%
%ADD15C,0.152400*%
%ADD16C,0.295000*%
%ADD17C,0.095000*%
%ADD18C,0.300000*%
%ADD19C,0.400000*%
%ADD20C,0.600000*%
%ADD21C,1.000000*%
%ADD22C,0.108125*%
%ADD23C,0.609600*%
%ADD24C,0.254000*%


D10*
X39050Y34664D03*
X51750Y34664D03*
X64450Y34664D03*
X77150Y34664D03*
X89850Y34664D03*
X102550Y34664D03*
X115250Y34664D03*
X127950Y34664D03*
X140650Y34664D03*
X153350Y34664D03*
X153350Y127736D03*
X140650Y127736D03*
X127950Y127736D03*
X115250Y127736D03*
X102550Y127736D03*
X89850Y127736D03*
X77150Y127736D03*
X64450Y127736D03*
X51750Y127736D03*
X39050Y127736D03*
D11*
X127350Y146700D03*
X122250Y146700D03*
X16050Y149000D03*
X10950Y149000D03*
X10950Y138800D03*
X16050Y138800D03*
D12*
X181200Y97400D03*
X186200Y97400D03*
X188200Y106700D03*
X183200Y106700D03*
D13*
X-800Y131700D03*
X3200Y39600D03*
D14*
X165700Y131000D03*
X165300Y99500D03*
X166000Y111100D03*
X139300Y147100D03*
X130100Y11100D03*
X165800Y121100D03*
X149600Y147100D03*
X160100Y147200D03*
X160300Y11600D03*
X200Y145300D03*
D15*
X32161Y32361D02*
X31800Y32000D01*
D16*
X31800Y32000D03*
D15*
X32161Y32361D02*
X29223Y35300D01*
X17700Y35300D01*
D16*
X17700Y35300D03*
D15*
X45152Y43594D02*
X50372Y48815D01*
X58815Y48815D02*
X62000Y52000D01*
X58815Y48815D02*
X50372Y48815D01*
X45152Y40766D02*
X39050Y34664D01*
X45152Y40766D02*
X45152Y43594D01*
D16*
X62000Y52000D03*
D15*
X153350Y127736D02*
X153550Y127536D01*
X153550Y111250D01*
X153550Y102250D02*
X153550Y101450D01*
D16*
X153550Y111250D03*
X153550Y101450D03*
D15*
X138900Y87600D02*
X117400Y87600D01*
X89400Y59600D01*
X138900Y87600D02*
X153550Y102250D01*
D16*
X89400Y59600D03*
X45865Y136535D03*
D15*
X45565Y136835D02*
X45565Y152035D01*
X45565Y136835D02*
X45865Y136535D01*
D16*
X45865Y151735D03*
X64465Y147665D03*
D15*
X62500Y147665D02*
X60200Y145365D01*
X57849Y145365D01*
X62500Y147665D02*
X64465Y147665D01*
D17*
X57849Y117606D02*
X55228Y114985D01*
X48272Y114985D01*
D15*
X45865Y151735D02*
X45565Y152035D01*
D17*
X57849Y145365D02*
X57849Y117606D01*
X48272Y114985D02*
X45485Y117772D01*
X45765Y151735D02*
X45865Y151735D01*
X45765Y151735D02*
X45485Y151456D01*
X45485Y117772D01*
D15*
X10950Y149000D02*
X9322Y149000D01*
X8636Y148314D01*
D18*
X8636Y145214D01*
D15*
X8636Y144800D02*
X8636Y148186D01*
D18*
X8636Y144800D02*
X8636Y141114D01*
D15*
X8636Y148186D02*
X9450Y149000D01*
D18*
X10950Y149000D01*
X8636Y141114D02*
X10950Y138800D01*
D15*
X39050Y127736D02*
X39050Y153266D01*
X46800Y161016D01*
X95816Y161016D01*
X100616Y156216D01*
D16*
X100616Y156216D03*
D15*
X12850Y135100D02*
X10950Y137000D01*
X10950Y138800D01*
X31686Y135100D02*
X39050Y127736D01*
X31686Y135100D02*
X12850Y135100D01*
X39050Y127736D02*
X39050Y125436D01*
X24914Y111300D01*
X19814Y116400D01*
X19814Y117200D01*
D16*
X19814Y117200D03*
D15*
X8636Y144800D02*
X8136Y145300D01*
D19*
X200Y145300D01*
D16*
X51450Y154650D03*
D15*
X50850Y154050D02*
X50850Y128636D01*
X51750Y127736D01*
X50850Y154050D02*
X51450Y154650D01*
X18350Y149000D02*
X16050Y149000D01*
X18350Y149000D02*
X22166Y152816D01*
D16*
X22166Y152816D03*
X45000Y21000D03*
D15*
X45000Y34800D01*
D16*
X45000Y34800D03*
D15*
X21050Y138300D02*
X21050Y141020D01*
X21050Y138300D02*
X20950Y138200D01*
D16*
X20950Y138200D03*
D15*
X21050Y141020D02*
X18270Y141020D01*
X16050Y138800D01*
X143600Y102000D02*
X143600Y100500D01*
D16*
X143600Y100500D03*
D15*
X131531Y100635D02*
X129735Y102431D01*
X129735Y104969D01*
X131531Y100635D02*
X140769Y100635D01*
X142134Y102000D02*
X143600Y102000D01*
X142134Y102000D02*
X140769Y100635D01*
X140650Y115884D02*
X140650Y127736D01*
X140650Y115884D02*
X129735Y104969D01*
X4950Y85400D02*
X4950Y85100D01*
X8450Y81600D01*
X16835Y81600D01*
D16*
X4950Y85400D03*
X16835Y81600D03*
D17*
X28550Y129650D02*
X28000Y130200D01*
D16*
X28000Y130200D03*
D17*
X24600Y125700D02*
X24600Y120600D01*
D15*
X22800Y118800D01*
X22800Y118700D01*
D17*
X24600Y125700D02*
X28550Y129650D01*
D16*
X22800Y118700D03*
D20*
X64450Y127736D02*
X64450Y97832D01*
X56418Y89800D01*
D19*
X7900Y89800D01*
D20*
X-1200Y98900D01*
X-1200Y117514D01*
D15*
X68600Y147000D02*
X69400Y147800D01*
X68600Y147000D02*
X68600Y146600D01*
X63950Y141950D01*
X63950Y127436D01*
X64250Y127736D01*
X64450Y127736D01*
D16*
X69400Y147800D03*
D19*
X-1200Y128900D02*
X-1200Y117514D01*
D15*
X-1200Y128900D02*
X-1200Y131300D01*
X-800Y131700D01*
D20*
X127850Y127636D02*
X127950Y127736D01*
X127850Y127636D02*
X127850Y111850D01*
X38898Y75212D02*
X7786Y44100D01*
X38898Y75212D02*
X91212Y75212D01*
X127850Y111850D01*
D16*
X133900Y141700D03*
D19*
X133800Y133586D02*
X127950Y127736D01*
D15*
X133800Y141600D02*
X133900Y141700D01*
D18*
X133800Y141600D02*
X133800Y133586D01*
D21*
X7786Y44100D02*
X3243Y39557D01*
D15*
X3200Y39600D01*
X120550Y145000D02*
X122250Y146700D01*
X120550Y145000D02*
X119250Y145000D01*
X118350Y145900D01*
X101900Y147600D02*
X101600Y147600D01*
D16*
X101600Y147600D03*
D15*
X103600Y145900D02*
X118350Y145900D01*
X103600Y145900D02*
X101900Y147600D01*
X183200Y108900D02*
X183200Y106700D01*
X183200Y108900D02*
X185300Y111000D01*
X191800Y111000D01*
X186200Y97400D02*
X186357Y97243D01*
X189200Y97243D01*
X191800Y99843D01*
X191800Y111000D01*
X189300Y96100D02*
X189300Y93600D01*
X189300Y96100D02*
X188583Y96817D01*
D16*
X189300Y93600D03*
X114600Y19300D03*
D15*
X113300Y24800D02*
X113300Y32714D01*
D19*
X114600Y23500D02*
X114600Y19300D01*
D15*
X114600Y23500D02*
X113300Y24800D01*
X113300Y32714D02*
X115250Y34664D01*
X127600Y146825D02*
X127600Y152500D01*
X127900Y152800D01*
D16*
X127900Y152800D03*
D19*
X115250Y127736D02*
X102550Y127736D01*
X102253Y127736D01*
X90455Y127736D01*
X89850Y127736D01*
X77150Y127736D01*
D15*
X120200Y152800D02*
X127900Y152800D01*
D16*
X120200Y152800D03*
D15*
X120650Y134450D02*
X117950Y134450D01*
X115000Y131500D01*
D16*
X120650Y134450D03*
D15*
X115000Y127986D02*
X115250Y127736D01*
X115000Y127986D02*
X115000Y131500D01*
D16*
X58931Y150629D03*
D19*
X75600Y154629D02*
X77150Y153079D01*
X75600Y154629D02*
X63031Y154629D01*
X58981Y150579D01*
D15*
X58931Y150629D01*
D19*
X77150Y153079D02*
X77150Y127736D01*
D16*
X53900Y80500D03*
D17*
X53700Y80500D01*
X52900Y81300D01*
X39000Y81300D01*
X38300Y80600D01*
D16*
X38300Y80600D03*
D20*
X102550Y34664D02*
X115250Y34664D01*
X102550Y34664D02*
X102253Y34664D01*
X90455Y34664D01*
X89850Y34664D01*
X77150Y34664D01*
D15*
X102550Y127736D02*
X111236Y127736D01*
X115000Y131500D01*
X77150Y34664D02*
X77250Y34564D01*
D19*
X77250Y23641D01*
X63510Y9900D01*
X28100Y9900D01*
X27500Y9300D01*
X27200Y9300D01*
D16*
X27200Y9300D03*
D15*
X24900Y18300D02*
X24900Y22100D01*
X24400Y18200D02*
X24600Y18000D01*
X24900Y18300D01*
X24900Y22100D02*
X23300Y23700D01*
X18300Y23700D01*
D16*
X24400Y18200D03*
X18300Y23700D03*
D15*
X32200Y80200D02*
X32600Y80600D01*
X32200Y80200D02*
X32200Y78400D01*
X31800Y78000D01*
X31800Y76700D01*
D16*
X32600Y80600D03*
D15*
X24300Y69200D02*
X20000Y69200D01*
X19900Y69300D01*
X24300Y69200D02*
X31800Y76700D01*
D16*
X19900Y69300D03*
D17*
X17200Y119800D02*
X17200Y121900D01*
X17300Y119900D02*
X17300Y119800D01*
X17200Y119800D02*
X14900Y117500D01*
X17200Y119800D02*
X17300Y119900D01*
X14900Y117500D02*
X14900Y99100D01*
D15*
X19600Y94400D01*
D16*
X17200Y121900D03*
X19600Y94400D03*
D17*
X17300Y119800D02*
X22100Y124600D01*
X22100Y128600D02*
X22300Y128800D01*
X22100Y128600D02*
X22100Y124600D01*
D16*
X22300Y128800D03*
D22*
X188775Y97009D02*
X189200Y97243D01*
X188775Y97009D02*
X188583Y96817D01*
X102253Y34664D02*
X102253Y34084D01*
X102550Y34664D01*
X90455Y35395D02*
X89850Y34664D01*
X90455Y34664D02*
X90455Y35395D01*
X89850Y127736D02*
X90455Y128472D01*
X90455Y127736D01*
X102253Y128472D02*
X102550Y127736D01*
X102253Y127736D02*
X102253Y128472D01*
D15*
X138900Y146700D02*
X139300Y147100D01*
X138900Y146700D02*
X127350Y146700D01*
D22*
X127161Y146825D01*
X127600Y146825D01*
D15*
X63100Y63900D02*
X63100Y54900D01*
D16*
X63100Y63900D03*
D15*
X63100Y54900D02*
X106400Y54900D01*
X110100Y58600D01*
D16*
X110100Y58600D03*
D15*
X177850Y97300D02*
X178164Y96986D01*
D16*
X177850Y97300D03*
D22*
X181200Y97400D02*
X181372Y97584D01*
X178164Y96986D01*
D15*
X188200Y105343D02*
X188200Y106700D01*
X188200Y105343D02*
X185418Y102561D01*
X180945Y102561D01*
X179935Y103571D01*
X179935Y105271D02*
X141071Y105271D01*
X139500Y103700D02*
X132800Y103700D01*
X139500Y103700D02*
X141071Y105271D01*
D16*
X183200Y115100D03*
D15*
X183200Y114400D01*
X183200Y114100D01*
X179935Y105271D02*
X179935Y103571D01*
X179935Y105271D02*
X179935Y111135D01*
X183200Y114400D01*
X6200Y120600D02*
X6100Y120700D01*
X6200Y120600D02*
X6200Y112000D01*
D16*
X6100Y120700D03*
X6200Y112000D03*
D17*
X60800Y85000D02*
X61500Y85000D01*
X60800Y85000D02*
X60000Y84200D01*
X29500Y84200D01*
X27800Y82500D01*
X27800Y79200D01*
X28100Y78900D01*
D16*
X28100Y78900D03*
X61500Y85000D03*
X120550Y83250D03*
D15*
X113565Y56931D02*
X108469Y51835D01*
X67093Y51835D01*
X58549Y43291D01*
X58549Y24934D01*
X113565Y56931D02*
X113565Y76265D01*
X58549Y24934D02*
X48550Y14935D01*
X-6417Y35404D02*
X-6417Y47912D01*
X29949Y84278D01*
X60778Y84278D01*
X61500Y85000D01*
X48550Y14935D02*
X14052Y14935D01*
X-6417Y35404D01*
X113565Y76265D02*
X120550Y83250D01*
D23*
X153350Y34664D02*
X153400Y34614D01*
X153400Y11600D01*
D20*
X160300Y11600D01*
D15*
X149000Y83200D02*
X165300Y99500D01*
X149000Y83200D02*
X149000Y53200D01*
X120500Y53200D01*
X120500Y65654D01*
D16*
X120500Y65654D03*
X145850Y89950D03*
D15*
X145550Y89650D01*
X145550Y56450D02*
X145600Y56400D01*
X145550Y56450D02*
X145550Y89650D01*
X145900Y48800D02*
X147300Y47400D01*
X145900Y48800D02*
X145900Y50200D01*
D16*
X145600Y56400D03*
X145900Y50200D03*
D15*
X147300Y47400D02*
X147300Y22300D01*
X138900Y13900D02*
X132900Y13900D01*
X130100Y11100D01*
X138900Y13900D02*
X147300Y22300D01*
D24*
X-20500Y-4100D02*
X174301Y-5600D01*
X174199Y-2764D01*
X174347Y345D01*
X174765Y3429D01*
X175450Y6465D01*
X176397Y9429D01*
X177599Y12300D01*
X179047Y15055D01*
X180729Y17673D01*
X182633Y20135D01*
X184744Y22422D01*
X187047Y24515D01*
X189523Y26401D01*
X192154Y28063D01*
X194920Y29489D01*
X197800Y30669D01*
X200772Y31594D01*
X203813Y32256D01*
X206900Y32650D01*
X206900Y33850D01*
X206700Y129050D01*
X204200Y129350D01*
X201160Y129992D01*
X197898Y130972D01*
X194733Y132232D01*
X191689Y133764D01*
X188791Y135555D01*
X186060Y137591D01*
X183517Y139858D01*
X181181Y142338D01*
X179070Y145012D01*
X177201Y147860D01*
X175586Y150860D01*
X174239Y153989D01*
X173170Y157223D01*
X172387Y160539D01*
X171896Y163910D01*
X171701Y167311D01*
X171803Y170717D01*
X172201Y174100D01*
X-20100Y174100D01*
X-20500Y-4100D01*
M02*
