G04 EAGLE Gerber RS-274X export*
G75*
%MOMM*%
%FSLAX34Y34*%
%LPD*%
%INBottom Copper*%
%IPPOS*%
%AMOC8*
5,1,8,0,0,1.08239X$1,22.5*%
G01*
%ADD10R,0.410000X1.968500*%
%ADD11R,0.969200X0.397100*%
%ADD12R,0.280000X0.430000*%
%ADD13R,0.430000X0.280000*%
%ADD14R,0.350000X0.250000*%
%ADD15R,0.250000X0.350000*%
%ADD16R,1.558800X0.406800*%
%ADD17R,1.461800X1.811800*%
%ADD18R,1.153600X1.153600*%
%ADD19C,0.934400*%
%ADD20C,0.152400*%
%ADD21C,0.295000*%
%ADD22C,0.095000*%
%ADD23C,0.200000*%
%ADD24C,0.300000*%
%ADD25C,0.400000*%
%ADD26C,0.108125*%
%ADD27C,0.180000*%
%ADD28C,0.182400*%
%ADD29C,0.098000*%
%ADD30C,0.254000*%


D10*
X54600Y56466D03*
X48200Y56466D03*
X41800Y56466D03*
X35400Y56466D03*
X29000Y56466D03*
X22600Y56466D03*
X16200Y56466D03*
X9800Y56466D03*
X9800Y105934D03*
X16200Y105934D03*
X22600Y105934D03*
X29000Y105934D03*
X35400Y105934D03*
X41800Y105934D03*
X48200Y105934D03*
X54600Y105934D03*
D11*
X111813Y155000D03*
X111813Y148500D03*
X111813Y142000D03*
X92387Y142000D03*
X92387Y148500D03*
X92387Y155000D03*
D12*
X16250Y130800D03*
X11150Y130800D03*
X58850Y154700D03*
X63950Y154700D03*
X71550Y153800D03*
X76650Y153800D03*
X21950Y122600D03*
X27050Y122600D03*
D13*
X900Y76250D03*
X900Y81350D03*
X18100Y32250D03*
X18100Y27150D03*
D14*
X26500Y27300D03*
X26500Y32300D03*
D15*
X30400Y142700D03*
X25400Y142700D03*
X47400Y144400D03*
X52400Y144400D03*
X19900Y131900D03*
X24900Y131900D03*
X178200Y91100D03*
X183200Y91100D03*
X129600Y141700D03*
X124600Y141700D03*
D16*
X132783Y110250D03*
X132783Y103750D03*
X132783Y97250D03*
X132783Y90750D03*
X132783Y84250D03*
X132783Y77750D03*
X132783Y71250D03*
X132783Y64750D03*
X132783Y58250D03*
X132783Y51750D03*
X75217Y51750D03*
X75217Y58250D03*
X75217Y64750D03*
X75217Y71250D03*
X75217Y77750D03*
X75217Y84250D03*
X75217Y90750D03*
X75217Y97250D03*
X75217Y103750D03*
X75217Y110250D03*
D14*
X11500Y32400D03*
X11500Y27400D03*
D15*
X9100Y121200D03*
X14100Y121200D03*
D17*
X180250Y53000D03*
X157750Y53000D03*
X157750Y79000D03*
X180250Y79000D03*
D18*
X-800Y131700D03*
X3200Y39600D03*
D19*
X165700Y131000D03*
X165300Y99500D03*
X166000Y111100D03*
X139300Y147100D03*
X130100Y11100D03*
X165800Y121100D03*
X149600Y147100D03*
X160100Y147200D03*
X160300Y11600D03*
X200Y145300D03*
D20*
X26500Y32300D02*
X30800Y28000D01*
X55000Y28000D01*
X55000Y56066D01*
X54600Y56466D01*
X31500Y32300D02*
X26500Y32300D01*
X31500Y32300D02*
X31800Y32000D01*
D21*
X31800Y32000D03*
X17700Y35300D03*
D20*
X17700Y32650D02*
X18100Y32250D01*
X17700Y32650D02*
X17700Y35300D01*
X63300Y51800D02*
X75267Y51800D01*
X63500Y52000D02*
X62000Y52000D01*
X63300Y51800D02*
X63500Y52000D01*
D21*
X62000Y52000D03*
D20*
X75267Y51800D02*
X75300Y51800D01*
X75267Y51800D02*
X75217Y51750D01*
X153550Y111250D02*
X153950Y110850D01*
X153950Y101450D01*
X153550Y101450D01*
D21*
X153550Y111250D03*
X153550Y101450D03*
D20*
X89400Y59600D02*
X81000Y51200D01*
X81000Y50900D01*
D21*
X89400Y59600D03*
D20*
X81000Y50900D02*
X76200Y50900D01*
X75300Y51800D01*
X54600Y105934D02*
X54600Y115066D01*
X54535Y115131D01*
X54535Y127665D01*
X45865Y136335D02*
X45865Y136535D01*
X45865Y136335D02*
X54535Y127665D01*
D21*
X45865Y136535D03*
X45865Y151735D03*
D20*
X45700Y151900D01*
X38900Y151900D01*
X30400Y143400D01*
X30400Y142700D01*
X71550Y153800D02*
X71550Y154200D01*
X70934Y154816D01*
X67700Y154816D01*
X67015Y154131D01*
X65000Y150943D02*
X65000Y148200D01*
X67015Y152957D02*
X67015Y154131D01*
X67015Y152957D02*
X65000Y150943D01*
X65000Y148200D02*
X64465Y147665D01*
D21*
X64465Y147665D03*
D22*
X100426Y156216D02*
X100616Y156216D01*
X100426Y156216D02*
X100071Y156571D01*
X100645Y156571D01*
X107716Y149500D01*
D21*
X100616Y156216D03*
D20*
X110813Y149500D02*
X111813Y148500D01*
D22*
X110813Y149500D02*
X107716Y149500D01*
X19814Y117200D02*
X19614Y117200D01*
X19014Y116600D01*
X19014Y105934D01*
X16200Y105934D01*
D21*
X19814Y117200D03*
D20*
X51450Y154700D02*
X58850Y154700D01*
X51450Y154700D02*
X51450Y154650D01*
D21*
X51450Y154650D03*
X22166Y152816D03*
D23*
X24700Y155350D02*
X50750Y155350D01*
X24700Y155350D02*
X22166Y152816D01*
D20*
X50750Y155350D02*
X51450Y154650D01*
X63950Y154700D02*
X63950Y157300D01*
X62550Y158700D01*
X13028Y158700D01*
X-10800Y148830D01*
X-10800Y34900D01*
X3100Y21000D02*
X45000Y21000D01*
X3100Y21000D02*
X-10800Y34900D01*
D21*
X45000Y21000D03*
X45000Y34800D03*
D20*
X47800Y37600D02*
X47800Y56066D01*
X48200Y56466D01*
X47800Y37600D02*
X45000Y34800D01*
X16250Y133500D02*
X20950Y138200D01*
X16250Y133500D02*
X16250Y130800D01*
D21*
X20950Y138200D03*
D20*
X65955Y74473D02*
X65734Y74252D01*
X65734Y67935D01*
D22*
X65955Y74473D02*
X84700Y74473D01*
X119975Y61573D02*
X142566Y61573D01*
D20*
X119975Y61573D02*
X113900Y67648D01*
X142566Y61573D02*
X142566Y48361D01*
X22950Y138200D02*
X20950Y138200D01*
X22950Y138200D02*
X27711Y133439D01*
X28845Y133439D01*
X45035Y117248D01*
D22*
X45035Y94549D01*
D20*
X112493Y48361D02*
X142566Y48361D01*
X84700Y80952D02*
X84525Y81127D01*
X84700Y80952D02*
X84700Y74473D01*
X113900Y67648D02*
X113900Y90352D01*
X124048Y100500D01*
D22*
X92918Y67935D02*
X65734Y67935D01*
D20*
X92918Y67935D02*
X112493Y48361D01*
X58457Y81127D02*
X45035Y94549D01*
D22*
X58457Y81127D02*
X84525Y81127D01*
X124048Y100500D02*
X143600Y100500D01*
D21*
X143600Y100500D03*
D20*
X11150Y130800D02*
X10450Y130100D01*
X10450Y124535D01*
X29793Y125765D02*
X38639Y116918D01*
D22*
X38639Y95423D01*
X29793Y125765D02*
X20107Y125765D01*
X18878Y124535D02*
X10450Y124535D01*
X18878Y124535D02*
X20107Y125765D01*
D20*
X22600Y79384D02*
X22600Y56466D01*
X22600Y79384D02*
X38639Y95423D01*
X22600Y105934D02*
X22461Y106073D01*
X22461Y113945D01*
X27050Y118534D02*
X27050Y122600D01*
X27050Y118534D02*
X22461Y113945D01*
D22*
X21950Y122600D02*
X21857Y122600D01*
X16857Y117600D01*
D20*
X916Y117600D02*
X-1316Y115368D01*
X-1316Y83566D02*
X900Y81350D01*
D22*
X916Y117600D02*
X16857Y117600D01*
D20*
X-1316Y115368D02*
X-1316Y83566D01*
X900Y81350D02*
X4950Y85400D01*
D21*
X4950Y85400D03*
X16835Y81600D03*
D20*
X16535Y56801D02*
X16200Y56466D01*
X16535Y81300D02*
X16835Y81600D01*
X16535Y81300D02*
X16535Y56801D01*
X26600Y130200D02*
X24900Y131900D01*
X26600Y130200D02*
X28000Y130200D01*
D21*
X28000Y130200D03*
D20*
X22800Y118700D02*
X21700Y118700D01*
D21*
X22800Y118700D03*
D20*
X21700Y122350D02*
X21950Y122600D01*
X21700Y122350D02*
X21700Y118700D01*
X46950Y143950D02*
X47400Y144400D01*
X46950Y143950D02*
X46900Y143900D01*
X42700Y143900D01*
X42700Y126800D01*
X48200Y121300D02*
X48200Y105934D01*
X48200Y121300D02*
X42700Y126800D01*
X89387Y155000D02*
X92387Y155000D01*
X89387Y155000D02*
X79087Y144700D01*
X60700Y144700D01*
X56300Y140300D01*
X50600Y140300D01*
X46950Y143950D01*
X76650Y153800D02*
X80100Y153800D01*
X87200Y160900D02*
X131800Y160900D01*
X131800Y145500D01*
X131065Y144765D01*
X128331Y144765D01*
X125266Y141700D02*
X124600Y141700D01*
X125266Y141700D02*
X128331Y144765D01*
X87200Y160900D02*
X80100Y153800D01*
X76650Y153800D02*
X76650Y152250D01*
X72200Y147800D01*
X69400Y147800D01*
D21*
X69400Y147800D03*
D20*
X129600Y141700D02*
X133900Y141700D01*
D21*
X133900Y141700D03*
D20*
X101600Y147600D02*
X99600Y149600D01*
D21*
X101600Y147600D03*
D20*
X99600Y149600D02*
X93487Y149600D01*
X92387Y148500D01*
X186800Y91100D02*
X189300Y93600D01*
X186800Y91100D02*
X183200Y91100D01*
D21*
X189300Y93600D03*
D20*
X157750Y53150D02*
X157750Y53000D01*
X171276Y66676D02*
X191000Y66676D01*
X191000Y91900D02*
X189300Y93600D01*
X171276Y66676D02*
X157750Y53150D01*
X191000Y66676D02*
X191000Y91900D01*
X157750Y53000D02*
X159378Y51372D01*
X160809Y45658D01*
D24*
X160479Y32200D01*
X130900Y32200D01*
X117900Y19200D01*
X114700Y19200D01*
D20*
X114600Y19300D01*
D21*
X114600Y19300D03*
D20*
X113613Y156800D02*
X123900Y156800D01*
X113613Y156800D02*
X111813Y155000D01*
X123900Y156800D02*
X127900Y152800D01*
D21*
X127900Y152800D03*
D20*
X120300Y152700D02*
X120200Y152800D01*
X120300Y152700D02*
X120300Y150900D01*
X119650Y150250D01*
X119900Y149600D02*
X119650Y149350D01*
D21*
X120200Y152800D03*
D20*
X119650Y150250D02*
X119650Y149350D01*
X119900Y135200D02*
X120650Y134450D01*
X119900Y135200D02*
X119900Y149600D01*
D21*
X120650Y134450D03*
D20*
X58931Y149929D02*
X58931Y150629D01*
X58931Y149929D02*
X58601Y149600D01*
X58200Y149600D01*
X53000Y144400D01*
X52400Y144400D01*
D21*
X58931Y150629D03*
D20*
X25400Y142700D02*
X25400Y140843D01*
X29782Y136461D01*
X30818Y136461D01*
X41922Y147565D02*
X53800Y147565D01*
X41922Y147565D02*
X30818Y136461D01*
X52400Y144400D02*
X53800Y145800D01*
X53800Y147565D01*
X23035Y36069D02*
X23035Y30231D01*
X23035Y36069D02*
X35400Y48434D01*
X35400Y56466D01*
X26500Y27300D02*
X25966Y27300D01*
X23035Y30231D01*
X26500Y27300D02*
X11600Y27300D01*
X11500Y27400D01*
X56650Y77750D02*
X75217Y77750D01*
X56650Y77750D02*
X53900Y80500D01*
D21*
X53900Y80500D03*
D22*
X38300Y80600D02*
X34400Y76700D01*
D21*
X38300Y80600D03*
D20*
X34400Y57466D02*
X35400Y56466D01*
X34400Y57466D02*
X34400Y76700D01*
D21*
X27200Y9300D03*
D20*
X24800Y17800D02*
X24400Y18200D01*
X24800Y17800D02*
X24800Y12000D01*
X27350Y9450D02*
X27200Y9300D01*
X27350Y9450D02*
X24800Y12000D01*
D21*
X24400Y18200D03*
X18300Y23700D03*
D20*
X18100Y27300D02*
X26500Y27300D01*
X18100Y27300D02*
X18100Y23900D01*
X18300Y23700D01*
X18300Y26950D01*
X18100Y27150D01*
X32600Y80600D02*
X38300Y80600D01*
D21*
X32600Y80600D03*
D22*
X19700Y83594D02*
X19700Y69500D01*
X19900Y69300D01*
X19700Y83594D02*
X21453Y85347D01*
D21*
X19900Y69300D03*
D20*
X21453Y85347D02*
X29000Y92894D01*
X29000Y105934D01*
X23965Y141265D02*
X25400Y142700D01*
X23965Y141265D02*
X18865Y141265D01*
X13300Y135700D01*
D22*
X13300Y127100D01*
X17900Y127100D01*
X19400Y128600D02*
X19400Y131400D01*
X19900Y131900D01*
X19400Y128600D02*
X17900Y127100D01*
D20*
X19600Y94400D02*
X25729Y94400D01*
X14100Y121200D02*
X14300Y121400D01*
X16700Y121400D02*
X17200Y121900D01*
X16700Y121400D02*
X14300Y121400D01*
D21*
X17200Y121900D03*
X19600Y94400D03*
D20*
X25729Y94400D02*
X28590Y97260D01*
X29100Y97771D01*
X29100Y107034D01*
D21*
X22300Y128800D03*
D20*
X19700Y129400D02*
X19700Y132100D01*
X20300Y128800D02*
X22300Y128800D01*
X20300Y128800D02*
X19700Y129400D01*
X19900Y131900D02*
X19700Y132100D01*
X34566Y107000D02*
X35400Y105934D01*
D25*
X34566Y107000D02*
X29100Y107034D01*
D26*
X28590Y97260D02*
X28841Y97009D01*
X29000Y105934D01*
D20*
X75217Y90750D02*
X75467Y91000D01*
X121000Y123000D02*
X146000Y123000D01*
X159832Y136832D01*
X89000Y91000D02*
X75467Y91000D01*
X89000Y91000D02*
X121000Y123000D01*
X62069Y111931D02*
X58000Y116000D01*
X62069Y94931D02*
X67000Y90000D01*
X74467Y90000D01*
X75217Y90750D01*
X58000Y116000D02*
X58000Y137300D01*
X61900Y141200D01*
X82700Y141200D01*
X62069Y111931D02*
X62069Y94931D01*
D22*
X82700Y141200D02*
X86700Y145200D01*
X100200Y145200D01*
X103900Y141500D01*
X111313Y141500D01*
D20*
X111813Y142000D01*
X159832Y146932D02*
X160100Y147200D01*
X159832Y146932D02*
X159832Y136832D01*
D27*
X88939Y97250D02*
X75217Y97250D01*
X88939Y97250D02*
X118737Y127048D01*
X145048Y127048D01*
X148700Y130700D01*
D20*
X66055Y96827D02*
X65734Y97148D01*
X92387Y138805D02*
X92387Y142000D01*
X92387Y138805D02*
X65734Y112152D01*
X75217Y97250D02*
X74794Y96827D01*
X66055Y96827D01*
X65734Y97148D02*
X65734Y112152D01*
X148700Y146200D02*
X149600Y147100D01*
D28*
X148700Y146200D02*
X148700Y130700D01*
D20*
X41800Y105934D02*
X41800Y87500D01*
X63100Y66200D01*
X63100Y63900D01*
D21*
X63100Y63900D03*
X110100Y58600D03*
D22*
X118735Y52465D02*
X133283Y52465D01*
D20*
X110200Y58700D02*
X110100Y58600D01*
X110200Y58700D02*
X112500Y58700D01*
X118735Y52465D01*
D22*
X132783Y51750D02*
X133283Y52250D01*
X133283Y52465D01*
D20*
X157750Y79000D02*
X157750Y82800D01*
X176050Y97300D02*
X177850Y97300D01*
X176050Y97300D02*
X169350Y90600D01*
X165550Y90600D02*
X157750Y82800D01*
D21*
X177850Y97300D03*
D20*
X169350Y90600D02*
X165550Y90600D01*
X152700Y90600D01*
X146100Y97200D02*
X138400Y97200D01*
X146100Y97200D02*
X152700Y90600D01*
D26*
X137648Y97009D02*
X133716Y97009D01*
X137648Y97009D02*
X138400Y97200D01*
X133716Y97009D02*
X132783Y97250D01*
D20*
X180250Y53000D02*
X183795Y56545D01*
X193075Y56545D01*
X194500Y57970D01*
X194500Y115100D01*
X183200Y115100D01*
D21*
X183200Y115100D03*
D20*
X178200Y91100D02*
X177800Y90700D01*
X11500Y32400D02*
X10200Y32400D01*
X6000Y28200D01*
X500Y28200D01*
X-6516Y35216D01*
D29*
X-6516Y68834D02*
X900Y76250D01*
X-6516Y68834D02*
X-6516Y35216D01*
D20*
X900Y76250D02*
X8850Y76250D01*
X9800Y77200D01*
X9800Y105934D01*
X8600Y120700D02*
X9100Y121200D01*
X8600Y120700D02*
X6100Y120700D01*
D21*
X6100Y120700D03*
X6200Y112000D03*
D20*
X9800Y108400D02*
X9800Y105934D01*
X9800Y108400D02*
X6200Y112000D01*
X13135Y44281D02*
X13982Y43435D01*
X24418Y43435D02*
X25665Y44681D01*
D22*
X25665Y74565D01*
D20*
X24418Y43435D02*
X13982Y43435D01*
X13135Y102599D02*
X9800Y105934D01*
D22*
X13135Y102599D02*
X13135Y44281D01*
D20*
X28100Y77000D02*
X28100Y78900D01*
X28100Y77000D02*
X25665Y74565D01*
D21*
X28100Y78900D03*
D20*
X61500Y85000D02*
X61700Y84800D01*
D21*
X61500Y85000D03*
D20*
X74667Y84800D02*
X75217Y84250D01*
X74667Y84800D02*
X61700Y84800D01*
X131783Y83250D02*
X132783Y84250D01*
X131783Y83250D02*
X120550Y83250D01*
D21*
X120550Y83250D03*
D20*
X149031Y48692D02*
X145635Y45296D01*
X64269Y60135D02*
X61731Y60135D01*
X59935Y61931D01*
X149031Y65952D02*
X149031Y48692D01*
X145635Y45296D02*
X111223Y45296D01*
X91555Y64965D01*
X88617Y64965D01*
X85379Y61727D01*
X65861Y61727D02*
X64269Y60135D01*
D22*
X65861Y61727D02*
X85379Y61727D01*
D20*
X59935Y61931D02*
X59935Y64280D01*
X31931Y84265D02*
X29535Y81869D01*
X29535Y80335D01*
X28100Y78900D01*
X39951Y84265D02*
X59935Y64280D01*
X39951Y84265D02*
X31931Y84265D01*
X149031Y65952D02*
X165327Y65952D01*
X168248Y68873D01*
X168248Y84623D01*
X174325Y90700D01*
X177800Y90700D01*
X168200Y131000D02*
X165700Y131000D01*
X168200Y131000D02*
X175500Y123700D01*
X175500Y101100D01*
X168100Y93700D01*
X150485Y100181D02*
X150485Y102115D01*
X150485Y100181D02*
X156966Y93700D01*
X142350Y110250D02*
X132783Y110250D01*
X156966Y93700D02*
X168100Y93700D01*
X150485Y102115D02*
X142350Y110250D01*
X161000Y111100D02*
X166000Y111100D01*
X161000Y111100D02*
X157600Y114500D01*
X125948Y114500D02*
X108900Y97452D01*
X108900Y64600D01*
X111735Y61765D01*
X113769Y61765D01*
X117284Y58250D02*
X132783Y58250D01*
X117284Y58250D02*
X113769Y61765D01*
X125948Y114500D02*
X157600Y114500D01*
X120500Y65654D02*
X121300Y64854D01*
D21*
X120500Y65654D03*
D20*
X132679Y64854D02*
X132783Y64750D01*
X132679Y64854D02*
X121300Y64854D01*
X133583Y89950D02*
X132783Y90750D01*
X133583Y89950D02*
X145850Y89950D01*
D21*
X145850Y89950D03*
D20*
X145600Y56400D02*
X145800Y56200D01*
X145800Y50300D01*
X145900Y50200D01*
D21*
X145600Y56400D03*
X145900Y50200D03*
D20*
X148434Y121100D02*
X165800Y121100D01*
X124678Y117565D02*
X89435Y82322D01*
X89435Y71250D01*
X144899Y117565D02*
X148434Y121100D01*
X144899Y117565D02*
X124678Y117565D01*
X89435Y71250D02*
X75217Y71250D01*
D30*
X-20500Y-4100D02*
X174301Y-5600D01*
X174199Y-2764D01*
X174347Y345D01*
X174765Y3429D01*
X175450Y6465D01*
X176397Y9429D01*
X177599Y12300D01*
X179047Y15055D01*
X180729Y17673D01*
X182633Y20135D01*
X184744Y22422D01*
X187047Y24515D01*
X189523Y26401D01*
X192154Y28063D01*
X194920Y29489D01*
X197800Y30669D01*
X200772Y31594D01*
X203813Y32256D01*
X206900Y32650D01*
X206900Y33850D01*
X206700Y129050D01*
X204200Y129350D01*
X201160Y129992D01*
X197898Y130972D01*
X194733Y132232D01*
X191689Y133764D01*
X188791Y135555D01*
X186060Y137591D01*
X183517Y139858D01*
X181181Y142338D01*
X179070Y145012D01*
X177201Y147860D01*
X175586Y150860D01*
X174239Y153989D01*
X173170Y157223D01*
X172387Y160539D01*
X171896Y163910D01*
X171701Y167311D01*
X171803Y170717D01*
X172201Y174100D01*
X-20100Y174100D01*
X-20500Y-4100D01*
M02*
