G04 EAGLE Gerber RS-274X export*
G75*
%MOMM*%
%FSLAX34Y34*%
%LPD*%
%INSilkscreen Bottom*%
%IPPOS*%
%AMOC8*
5,1,8,0,0,1.08239X$1,22.5*%
G01*
%ADD10C,0.500000*%
%ADD11C,0.120000*%
%ADD12C,0.025400*%
%ADD13R,0.300000X0.300000*%


D10*
X61690Y53912D03*
D11*
X59790Y61200D02*
X59790Y101200D01*
X4610Y101200D02*
X4610Y61200D01*
D12*
X13443Y74818D02*
X15461Y74818D01*
X13443Y74818D02*
X13388Y74820D01*
X13333Y74826D01*
X13278Y74836D01*
X13224Y74849D01*
X13172Y74867D01*
X13121Y74888D01*
X13071Y74913D01*
X13023Y74941D01*
X12978Y74973D01*
X12935Y75008D01*
X12894Y75045D01*
X12857Y75086D01*
X12822Y75129D01*
X12790Y75174D01*
X12762Y75222D01*
X12737Y75272D01*
X12716Y75323D01*
X12698Y75375D01*
X12685Y75429D01*
X12675Y75484D01*
X12669Y75539D01*
X12667Y75594D01*
X12669Y75649D01*
X12675Y75704D01*
X12685Y75759D01*
X12698Y75813D01*
X12716Y75865D01*
X12737Y75916D01*
X12762Y75966D01*
X12790Y76014D01*
X12822Y76059D01*
X12857Y76102D01*
X12894Y76143D01*
X12935Y76180D01*
X12978Y76215D01*
X13023Y76247D01*
X13071Y76275D01*
X13121Y76300D01*
X13172Y76321D01*
X13224Y76339D01*
X13278Y76352D01*
X13333Y76362D01*
X13388Y76368D01*
X13443Y76370D01*
X15461Y76370D01*
X15461Y78246D02*
X12667Y78246D01*
X14064Y78246D02*
X14297Y77858D01*
X14296Y77857D02*
X14319Y77823D01*
X14345Y77790D01*
X14374Y77760D01*
X14405Y77733D01*
X14439Y77708D01*
X14475Y77687D01*
X14512Y77669D01*
X14551Y77655D01*
X14591Y77644D01*
X14632Y77636D01*
X14673Y77632D01*
X14715Y77632D01*
X14756Y77636D01*
X14797Y77644D01*
X14837Y77655D01*
X14876Y77669D01*
X14914Y77687D01*
X14950Y77709D01*
X14983Y77733D01*
X15015Y77761D01*
X15043Y77791D01*
X15069Y77823D01*
X15092Y77858D01*
X15112Y77894D01*
X15128Y77933D01*
X15141Y77972D01*
X15150Y78013D01*
X15151Y78013D02*
X15161Y78080D01*
X15168Y78148D01*
X15171Y78216D01*
X15170Y78285D01*
X15165Y78353D01*
X15157Y78420D01*
X15145Y78487D01*
X15129Y78554D01*
X15109Y78619D01*
X15086Y78683D01*
X15059Y78746D01*
X15029Y78807D01*
X14996Y78867D01*
X14064Y78246D02*
X13831Y78634D01*
X13832Y78634D02*
X13809Y78668D01*
X13783Y78701D01*
X13754Y78731D01*
X13723Y78758D01*
X13689Y78783D01*
X13653Y78804D01*
X13616Y78822D01*
X13577Y78836D01*
X13537Y78847D01*
X13496Y78855D01*
X13455Y78859D01*
X13413Y78859D01*
X13372Y78855D01*
X13331Y78847D01*
X13291Y78836D01*
X13252Y78822D01*
X13214Y78804D01*
X13178Y78782D01*
X13145Y78758D01*
X13113Y78731D01*
X13085Y78700D01*
X13059Y78668D01*
X13036Y78633D01*
X13016Y78597D01*
X13000Y78558D01*
X12987Y78519D01*
X12978Y78478D01*
X12977Y78479D02*
X12967Y78412D01*
X12960Y78344D01*
X12957Y78276D01*
X12958Y78207D01*
X12963Y78139D01*
X12971Y78072D01*
X12983Y78005D01*
X12999Y77938D01*
X13019Y77873D01*
X13042Y77809D01*
X13069Y77746D01*
X13099Y77685D01*
X13132Y77625D01*
X14840Y80030D02*
X15461Y80806D01*
X12667Y80806D01*
X12667Y80030D02*
X12667Y81582D01*
D10*
X113390Y162025D03*
D11*
X108350Y160125D02*
X95850Y160125D01*
X95850Y136875D02*
X108350Y136875D01*
D12*
X104482Y133796D02*
X104482Y131778D01*
X104480Y131723D01*
X104474Y131668D01*
X104464Y131613D01*
X104451Y131559D01*
X104433Y131507D01*
X104412Y131456D01*
X104387Y131406D01*
X104359Y131358D01*
X104327Y131313D01*
X104292Y131270D01*
X104255Y131229D01*
X104214Y131192D01*
X104171Y131157D01*
X104126Y131125D01*
X104078Y131097D01*
X104028Y131072D01*
X103977Y131051D01*
X103925Y131033D01*
X103871Y131020D01*
X103816Y131010D01*
X103761Y131004D01*
X103706Y131002D01*
X103651Y131004D01*
X103596Y131010D01*
X103541Y131020D01*
X103487Y131033D01*
X103435Y131051D01*
X103384Y131072D01*
X103334Y131097D01*
X103286Y131125D01*
X103241Y131157D01*
X103198Y131192D01*
X103157Y131229D01*
X103120Y131270D01*
X103085Y131313D01*
X103053Y131358D01*
X103025Y131406D01*
X103000Y131456D01*
X102979Y131507D01*
X102961Y131559D01*
X102948Y131613D01*
X102938Y131668D01*
X102932Y131723D01*
X102930Y131778D01*
X102930Y133796D01*
X101054Y133796D02*
X101054Y131002D01*
X101054Y132399D02*
X101442Y132632D01*
X101443Y132631D02*
X101477Y132654D01*
X101510Y132680D01*
X101540Y132709D01*
X101567Y132740D01*
X101592Y132774D01*
X101613Y132810D01*
X101631Y132847D01*
X101645Y132886D01*
X101656Y132926D01*
X101664Y132967D01*
X101668Y133008D01*
X101668Y133050D01*
X101664Y133091D01*
X101656Y133132D01*
X101645Y133172D01*
X101631Y133211D01*
X101613Y133249D01*
X101591Y133285D01*
X101567Y133318D01*
X101539Y133350D01*
X101509Y133378D01*
X101477Y133404D01*
X101442Y133427D01*
X101406Y133447D01*
X101367Y133463D01*
X101328Y133476D01*
X101287Y133485D01*
X101287Y133486D02*
X101220Y133496D01*
X101152Y133503D01*
X101084Y133506D01*
X101015Y133505D01*
X100947Y133500D01*
X100880Y133492D01*
X100813Y133480D01*
X100746Y133464D01*
X100681Y133444D01*
X100617Y133421D01*
X100554Y133394D01*
X100493Y133364D01*
X100433Y133331D01*
X101054Y132399D02*
X100666Y132166D01*
X100666Y132167D02*
X100632Y132144D01*
X100599Y132118D01*
X100569Y132089D01*
X100542Y132058D01*
X100517Y132024D01*
X100496Y131988D01*
X100478Y131951D01*
X100464Y131912D01*
X100453Y131872D01*
X100445Y131831D01*
X100441Y131790D01*
X100441Y131748D01*
X100445Y131707D01*
X100453Y131666D01*
X100464Y131626D01*
X100478Y131587D01*
X100496Y131549D01*
X100518Y131513D01*
X100542Y131480D01*
X100569Y131448D01*
X100600Y131420D01*
X100632Y131394D01*
X100667Y131371D01*
X100703Y131351D01*
X100742Y131335D01*
X100781Y131322D01*
X100822Y131313D01*
X100821Y131312D02*
X100888Y131302D01*
X100956Y131295D01*
X101024Y131292D01*
X101093Y131293D01*
X101161Y131298D01*
X101228Y131306D01*
X101296Y131318D01*
X101362Y131334D01*
X101427Y131354D01*
X101491Y131377D01*
X101554Y131404D01*
X101615Y131434D01*
X101675Y131467D01*
X98416Y133797D02*
X98366Y133795D01*
X98317Y133790D01*
X98267Y133781D01*
X98219Y133769D01*
X98172Y133753D01*
X98126Y133734D01*
X98081Y133711D01*
X98038Y133686D01*
X97997Y133658D01*
X97958Y133626D01*
X97922Y133592D01*
X97888Y133556D01*
X97856Y133517D01*
X97828Y133476D01*
X97803Y133433D01*
X97780Y133388D01*
X97761Y133342D01*
X97745Y133295D01*
X97733Y133247D01*
X97724Y133197D01*
X97719Y133148D01*
X97717Y133098D01*
X98416Y133796D02*
X98472Y133794D01*
X98529Y133789D01*
X98584Y133780D01*
X98639Y133768D01*
X98693Y133752D01*
X98746Y133733D01*
X98798Y133710D01*
X98848Y133685D01*
X98897Y133656D01*
X98944Y133624D01*
X98988Y133590D01*
X99030Y133553D01*
X99070Y133513D01*
X99108Y133470D01*
X99142Y133426D01*
X99174Y133379D01*
X99202Y133330D01*
X99228Y133280D01*
X99250Y133228D01*
X99269Y133175D01*
X97951Y132555D02*
X97915Y132591D01*
X97882Y132629D01*
X97852Y132670D01*
X97825Y132712D01*
X97800Y132757D01*
X97779Y132803D01*
X97760Y132850D01*
X97745Y132898D01*
X97733Y132947D01*
X97725Y132997D01*
X97720Y133047D01*
X97718Y133098D01*
X97951Y132554D02*
X99270Y131002D01*
X97718Y131002D01*
D13*
X13700Y130800D03*
D12*
X22254Y125223D02*
X22254Y122429D01*
X22254Y125223D02*
X21478Y125223D01*
X21423Y125221D01*
X21368Y125215D01*
X21313Y125205D01*
X21259Y125192D01*
X21207Y125174D01*
X21156Y125153D01*
X21106Y125128D01*
X21058Y125100D01*
X21013Y125068D01*
X20970Y125033D01*
X20929Y124996D01*
X20892Y124955D01*
X20857Y124912D01*
X20825Y124867D01*
X20797Y124819D01*
X20772Y124769D01*
X20751Y124718D01*
X20733Y124666D01*
X20720Y124612D01*
X20710Y124557D01*
X20704Y124502D01*
X20702Y124447D01*
X20704Y124392D01*
X20710Y124337D01*
X20720Y124282D01*
X20733Y124228D01*
X20751Y124176D01*
X20772Y124125D01*
X20797Y124075D01*
X20825Y124027D01*
X20857Y123982D01*
X20892Y123939D01*
X20929Y123898D01*
X20970Y123861D01*
X21013Y123826D01*
X21058Y123794D01*
X21106Y123766D01*
X21156Y123741D01*
X21207Y123720D01*
X21259Y123702D01*
X21313Y123689D01*
X21368Y123679D01*
X21423Y123673D01*
X21478Y123671D01*
X22254Y123671D01*
X21323Y123671D02*
X20702Y122429D01*
X19529Y124602D02*
X18753Y125223D01*
X18753Y122429D01*
X19529Y122429D02*
X17977Y122429D01*
D13*
X61400Y154700D03*
D12*
X49554Y154323D02*
X49554Y151529D01*
X49554Y154323D02*
X48778Y154323D01*
X48723Y154321D01*
X48668Y154315D01*
X48613Y154305D01*
X48559Y154292D01*
X48507Y154274D01*
X48456Y154253D01*
X48406Y154228D01*
X48358Y154200D01*
X48313Y154168D01*
X48270Y154133D01*
X48229Y154096D01*
X48192Y154055D01*
X48157Y154012D01*
X48125Y153967D01*
X48097Y153919D01*
X48072Y153869D01*
X48051Y153818D01*
X48033Y153766D01*
X48020Y153712D01*
X48010Y153657D01*
X48004Y153602D01*
X48002Y153547D01*
X48004Y153492D01*
X48010Y153437D01*
X48020Y153382D01*
X48033Y153328D01*
X48051Y153276D01*
X48072Y153225D01*
X48097Y153175D01*
X48125Y153127D01*
X48157Y153082D01*
X48192Y153039D01*
X48229Y152998D01*
X48270Y152961D01*
X48313Y152926D01*
X48358Y152894D01*
X48406Y152866D01*
X48456Y152841D01*
X48507Y152820D01*
X48559Y152802D01*
X48613Y152789D01*
X48668Y152779D01*
X48723Y152773D01*
X48778Y152771D01*
X49554Y152771D01*
X48623Y152771D02*
X48002Y151529D01*
X45277Y153625D02*
X45279Y153675D01*
X45284Y153724D01*
X45293Y153774D01*
X45305Y153822D01*
X45321Y153869D01*
X45340Y153915D01*
X45363Y153960D01*
X45388Y154003D01*
X45416Y154044D01*
X45448Y154083D01*
X45482Y154119D01*
X45518Y154153D01*
X45557Y154185D01*
X45598Y154213D01*
X45641Y154238D01*
X45686Y154261D01*
X45732Y154280D01*
X45779Y154296D01*
X45827Y154308D01*
X45877Y154317D01*
X45926Y154322D01*
X45976Y154324D01*
X45976Y154323D02*
X46032Y154321D01*
X46089Y154316D01*
X46144Y154307D01*
X46199Y154295D01*
X46253Y154279D01*
X46306Y154260D01*
X46358Y154237D01*
X46408Y154212D01*
X46457Y154183D01*
X46504Y154151D01*
X46548Y154117D01*
X46590Y154080D01*
X46630Y154040D01*
X46668Y153997D01*
X46702Y153953D01*
X46734Y153906D01*
X46762Y153857D01*
X46788Y153807D01*
X46810Y153755D01*
X46829Y153702D01*
X45510Y153082D02*
X45474Y153118D01*
X45441Y153156D01*
X45411Y153197D01*
X45384Y153239D01*
X45359Y153284D01*
X45338Y153330D01*
X45319Y153377D01*
X45304Y153425D01*
X45292Y153474D01*
X45284Y153524D01*
X45279Y153574D01*
X45277Y153625D01*
X45510Y153081D02*
X46829Y151529D01*
X45277Y151529D01*
D13*
X74100Y153800D03*
D12*
X68154Y158529D02*
X68154Y161323D01*
X67378Y161323D01*
X67323Y161321D01*
X67268Y161315D01*
X67213Y161305D01*
X67159Y161292D01*
X67107Y161274D01*
X67056Y161253D01*
X67006Y161228D01*
X66958Y161200D01*
X66913Y161168D01*
X66870Y161133D01*
X66829Y161096D01*
X66792Y161055D01*
X66757Y161012D01*
X66725Y160967D01*
X66697Y160919D01*
X66672Y160869D01*
X66651Y160818D01*
X66633Y160766D01*
X66620Y160712D01*
X66610Y160657D01*
X66604Y160602D01*
X66602Y160547D01*
X66604Y160492D01*
X66610Y160437D01*
X66620Y160382D01*
X66633Y160328D01*
X66651Y160276D01*
X66672Y160225D01*
X66697Y160175D01*
X66725Y160127D01*
X66757Y160082D01*
X66792Y160039D01*
X66829Y159998D01*
X66870Y159961D01*
X66913Y159926D01*
X66958Y159894D01*
X67006Y159866D01*
X67056Y159841D01*
X67107Y159820D01*
X67159Y159802D01*
X67213Y159789D01*
X67268Y159779D01*
X67323Y159773D01*
X67378Y159771D01*
X68154Y159771D01*
X67223Y159771D02*
X66602Y158529D01*
X65429Y158529D02*
X64653Y158529D01*
X64598Y158531D01*
X64543Y158537D01*
X64488Y158547D01*
X64434Y158560D01*
X64382Y158578D01*
X64331Y158599D01*
X64281Y158624D01*
X64233Y158652D01*
X64188Y158684D01*
X64145Y158719D01*
X64104Y158756D01*
X64067Y158797D01*
X64032Y158840D01*
X64000Y158885D01*
X63972Y158933D01*
X63947Y158983D01*
X63926Y159034D01*
X63908Y159086D01*
X63895Y159140D01*
X63885Y159195D01*
X63879Y159250D01*
X63877Y159305D01*
X63879Y159360D01*
X63885Y159415D01*
X63895Y159470D01*
X63908Y159524D01*
X63926Y159576D01*
X63947Y159627D01*
X63972Y159677D01*
X64000Y159725D01*
X64032Y159770D01*
X64067Y159813D01*
X64104Y159854D01*
X64145Y159891D01*
X64188Y159926D01*
X64233Y159958D01*
X64281Y159986D01*
X64331Y160011D01*
X64382Y160032D01*
X64434Y160050D01*
X64488Y160063D01*
X64543Y160073D01*
X64598Y160079D01*
X64653Y160081D01*
X64498Y161323D02*
X65429Y161323D01*
X64498Y161323D02*
X64449Y161321D01*
X64401Y161315D01*
X64353Y161306D01*
X64306Y161293D01*
X64260Y161276D01*
X64216Y161255D01*
X64174Y161231D01*
X64133Y161204D01*
X64095Y161174D01*
X64059Y161141D01*
X64026Y161105D01*
X63996Y161067D01*
X63969Y161026D01*
X63945Y160984D01*
X63924Y160940D01*
X63907Y160894D01*
X63894Y160847D01*
X63885Y160799D01*
X63879Y160751D01*
X63877Y160702D01*
X63879Y160653D01*
X63885Y160605D01*
X63894Y160557D01*
X63907Y160510D01*
X63924Y160464D01*
X63945Y160420D01*
X63969Y160378D01*
X63996Y160337D01*
X64026Y160299D01*
X64059Y160263D01*
X64095Y160230D01*
X64133Y160200D01*
X64174Y160173D01*
X64216Y160149D01*
X64260Y160128D01*
X64306Y160111D01*
X64353Y160098D01*
X64401Y160089D01*
X64449Y160083D01*
X64498Y160081D01*
X65119Y160081D01*
D13*
X24500Y122600D03*
D12*
X34554Y124329D02*
X34554Y127123D01*
X33778Y127123D01*
X33723Y127121D01*
X33668Y127115D01*
X33613Y127105D01*
X33559Y127092D01*
X33507Y127074D01*
X33456Y127053D01*
X33406Y127028D01*
X33358Y127000D01*
X33313Y126968D01*
X33270Y126933D01*
X33229Y126896D01*
X33192Y126855D01*
X33157Y126812D01*
X33125Y126767D01*
X33097Y126719D01*
X33072Y126669D01*
X33051Y126618D01*
X33033Y126566D01*
X33020Y126512D01*
X33010Y126457D01*
X33004Y126402D01*
X33002Y126347D01*
X33004Y126292D01*
X33010Y126237D01*
X33020Y126182D01*
X33033Y126128D01*
X33051Y126076D01*
X33072Y126025D01*
X33097Y125975D01*
X33125Y125927D01*
X33157Y125882D01*
X33192Y125839D01*
X33229Y125798D01*
X33270Y125761D01*
X33313Y125726D01*
X33358Y125694D01*
X33406Y125666D01*
X33456Y125641D01*
X33507Y125620D01*
X33559Y125602D01*
X33613Y125589D01*
X33668Y125579D01*
X33723Y125573D01*
X33778Y125571D01*
X34554Y125571D01*
X33623Y125571D02*
X33002Y124329D01*
X31829Y124329D02*
X30898Y124329D01*
X30849Y124331D01*
X30801Y124337D01*
X30753Y124346D01*
X30706Y124359D01*
X30660Y124376D01*
X30616Y124397D01*
X30574Y124420D01*
X30533Y124448D01*
X30495Y124478D01*
X30459Y124511D01*
X30426Y124547D01*
X30396Y124585D01*
X30369Y124625D01*
X30345Y124668D01*
X30324Y124712D01*
X30307Y124758D01*
X30294Y124805D01*
X30285Y124853D01*
X30279Y124901D01*
X30277Y124950D01*
X30277Y125260D01*
X30279Y125309D01*
X30285Y125357D01*
X30294Y125405D01*
X30307Y125452D01*
X30324Y125498D01*
X30345Y125542D01*
X30369Y125584D01*
X30396Y125625D01*
X30426Y125663D01*
X30459Y125699D01*
X30495Y125732D01*
X30533Y125762D01*
X30574Y125790D01*
X30616Y125813D01*
X30660Y125834D01*
X30706Y125851D01*
X30753Y125864D01*
X30801Y125873D01*
X30849Y125879D01*
X30898Y125881D01*
X31829Y125881D01*
X31829Y127123D01*
X30277Y127123D01*
D13*
X900Y78800D03*
D12*
X1377Y67577D02*
X4171Y67577D01*
X4171Y68353D01*
X4169Y68408D01*
X4163Y68463D01*
X4153Y68518D01*
X4140Y68572D01*
X4122Y68624D01*
X4101Y68675D01*
X4076Y68725D01*
X4048Y68773D01*
X4016Y68818D01*
X3981Y68861D01*
X3944Y68902D01*
X3903Y68939D01*
X3860Y68974D01*
X3815Y69006D01*
X3767Y69034D01*
X3717Y69059D01*
X3666Y69080D01*
X3614Y69098D01*
X3560Y69111D01*
X3505Y69121D01*
X3450Y69127D01*
X3395Y69129D01*
X3340Y69127D01*
X3285Y69121D01*
X3230Y69111D01*
X3176Y69098D01*
X3124Y69080D01*
X3073Y69059D01*
X3023Y69034D01*
X2975Y69006D01*
X2930Y68974D01*
X2887Y68939D01*
X2846Y68902D01*
X2809Y68861D01*
X2774Y68818D01*
X2742Y68773D01*
X2714Y68725D01*
X2689Y68675D01*
X2668Y68624D01*
X2650Y68572D01*
X2637Y68518D01*
X2627Y68463D01*
X2621Y68408D01*
X2619Y68353D01*
X2619Y67577D01*
X2619Y68508D02*
X1377Y69129D01*
X2929Y70302D02*
X2929Y71233D01*
X2927Y71282D01*
X2921Y71330D01*
X2912Y71378D01*
X2899Y71425D01*
X2882Y71471D01*
X2861Y71515D01*
X2837Y71557D01*
X2810Y71598D01*
X2780Y71636D01*
X2747Y71672D01*
X2711Y71705D01*
X2673Y71735D01*
X2632Y71762D01*
X2590Y71786D01*
X2546Y71807D01*
X2500Y71824D01*
X2453Y71837D01*
X2405Y71846D01*
X2357Y71852D01*
X2308Y71854D01*
X2153Y71854D01*
X2098Y71852D01*
X2043Y71846D01*
X1988Y71836D01*
X1934Y71823D01*
X1882Y71805D01*
X1831Y71784D01*
X1781Y71759D01*
X1733Y71731D01*
X1688Y71699D01*
X1645Y71664D01*
X1604Y71627D01*
X1567Y71586D01*
X1532Y71543D01*
X1500Y71498D01*
X1472Y71450D01*
X1447Y71400D01*
X1426Y71349D01*
X1408Y71297D01*
X1395Y71243D01*
X1385Y71188D01*
X1379Y71133D01*
X1377Y71078D01*
X1379Y71023D01*
X1385Y70968D01*
X1395Y70913D01*
X1408Y70859D01*
X1426Y70807D01*
X1447Y70756D01*
X1472Y70706D01*
X1500Y70658D01*
X1532Y70613D01*
X1567Y70570D01*
X1604Y70529D01*
X1645Y70492D01*
X1688Y70457D01*
X1733Y70425D01*
X1781Y70397D01*
X1831Y70372D01*
X1882Y70351D01*
X1934Y70333D01*
X1988Y70320D01*
X2043Y70310D01*
X2098Y70304D01*
X2153Y70302D01*
X2929Y70302D01*
X2999Y70304D01*
X3068Y70310D01*
X3137Y70320D01*
X3205Y70333D01*
X3273Y70351D01*
X3339Y70372D01*
X3404Y70397D01*
X3468Y70425D01*
X3530Y70457D01*
X3590Y70492D01*
X3648Y70531D01*
X3703Y70573D01*
X3757Y70618D01*
X3807Y70666D01*
X3855Y70716D01*
X3900Y70770D01*
X3942Y70825D01*
X3981Y70883D01*
X4016Y70943D01*
X4048Y71005D01*
X4076Y71069D01*
X4101Y71134D01*
X4122Y71200D01*
X4140Y71268D01*
X4153Y71336D01*
X4163Y71405D01*
X4169Y71474D01*
X4171Y71544D01*
D13*
X18100Y29700D03*
D12*
X13623Y11646D02*
X10829Y11646D01*
X13623Y11646D02*
X13623Y12422D01*
X13621Y12477D01*
X13615Y12532D01*
X13605Y12587D01*
X13592Y12641D01*
X13574Y12693D01*
X13553Y12744D01*
X13528Y12794D01*
X13500Y12842D01*
X13468Y12887D01*
X13433Y12930D01*
X13396Y12971D01*
X13355Y13008D01*
X13312Y13043D01*
X13267Y13075D01*
X13219Y13103D01*
X13169Y13128D01*
X13118Y13149D01*
X13066Y13167D01*
X13012Y13180D01*
X12957Y13190D01*
X12902Y13196D01*
X12847Y13198D01*
X12792Y13196D01*
X12737Y13190D01*
X12682Y13180D01*
X12628Y13167D01*
X12576Y13149D01*
X12525Y13128D01*
X12475Y13103D01*
X12427Y13075D01*
X12382Y13043D01*
X12339Y13008D01*
X12298Y12971D01*
X12261Y12930D01*
X12226Y12887D01*
X12194Y12842D01*
X12166Y12794D01*
X12141Y12744D01*
X12120Y12693D01*
X12102Y12641D01*
X12089Y12587D01*
X12079Y12532D01*
X12073Y12477D01*
X12071Y12422D01*
X12071Y11646D01*
X12071Y12577D02*
X10829Y13198D01*
X13313Y14371D02*
X13623Y14371D01*
X13623Y15923D01*
X10829Y15147D01*
X31877Y32548D02*
X31877Y33169D01*
X31877Y32548D02*
X31879Y32499D01*
X31885Y32451D01*
X31894Y32403D01*
X31907Y32356D01*
X31924Y32310D01*
X31945Y32266D01*
X31969Y32224D01*
X31996Y32183D01*
X32026Y32145D01*
X32059Y32109D01*
X32095Y32076D01*
X32133Y32046D01*
X32174Y32019D01*
X32216Y31995D01*
X32260Y31974D01*
X32306Y31957D01*
X32353Y31944D01*
X32401Y31935D01*
X32449Y31929D01*
X32498Y31927D01*
X34050Y31927D01*
X34099Y31929D01*
X34147Y31935D01*
X34195Y31944D01*
X34242Y31957D01*
X34288Y31974D01*
X34332Y31995D01*
X34374Y32019D01*
X34415Y32046D01*
X34453Y32076D01*
X34489Y32109D01*
X34522Y32145D01*
X34552Y32183D01*
X34579Y32224D01*
X34603Y32266D01*
X34624Y32310D01*
X34641Y32356D01*
X34654Y32403D01*
X34663Y32451D01*
X34669Y32499D01*
X34671Y32548D01*
X34671Y33169D01*
X34050Y34221D02*
X34671Y34997D01*
X31877Y34997D01*
X31877Y34221D02*
X31877Y35773D01*
X29452Y146877D02*
X28831Y146877D01*
X29452Y146877D02*
X29501Y146879D01*
X29549Y146885D01*
X29597Y146894D01*
X29644Y146907D01*
X29690Y146924D01*
X29734Y146945D01*
X29776Y146969D01*
X29817Y146996D01*
X29855Y147026D01*
X29891Y147059D01*
X29924Y147095D01*
X29954Y147133D01*
X29981Y147174D01*
X30005Y147216D01*
X30026Y147260D01*
X30043Y147306D01*
X30056Y147353D01*
X30065Y147401D01*
X30071Y147449D01*
X30073Y147498D01*
X30073Y149050D01*
X30071Y149099D01*
X30065Y149147D01*
X30056Y149195D01*
X30043Y149242D01*
X30026Y149288D01*
X30005Y149332D01*
X29981Y149374D01*
X29954Y149415D01*
X29924Y149453D01*
X29891Y149489D01*
X29855Y149522D01*
X29817Y149552D01*
X29776Y149579D01*
X29734Y149603D01*
X29690Y149624D01*
X29644Y149641D01*
X29597Y149654D01*
X29549Y149663D01*
X29501Y149669D01*
X29452Y149671D01*
X28831Y149671D01*
X26925Y149672D02*
X26875Y149670D01*
X26826Y149665D01*
X26776Y149656D01*
X26728Y149644D01*
X26681Y149628D01*
X26635Y149609D01*
X26590Y149586D01*
X26547Y149561D01*
X26506Y149533D01*
X26467Y149501D01*
X26431Y149467D01*
X26397Y149431D01*
X26365Y149392D01*
X26337Y149351D01*
X26312Y149308D01*
X26289Y149263D01*
X26270Y149217D01*
X26254Y149170D01*
X26242Y149122D01*
X26233Y149072D01*
X26228Y149023D01*
X26226Y148973D01*
X26925Y149671D02*
X26981Y149669D01*
X27038Y149664D01*
X27093Y149655D01*
X27148Y149643D01*
X27202Y149627D01*
X27255Y149608D01*
X27307Y149585D01*
X27357Y149560D01*
X27406Y149531D01*
X27453Y149499D01*
X27497Y149465D01*
X27539Y149428D01*
X27579Y149388D01*
X27617Y149345D01*
X27651Y149301D01*
X27683Y149254D01*
X27711Y149205D01*
X27737Y149155D01*
X27759Y149103D01*
X27778Y149050D01*
X26460Y148430D02*
X26424Y148466D01*
X26391Y148504D01*
X26361Y148545D01*
X26334Y148587D01*
X26309Y148632D01*
X26288Y148678D01*
X26269Y148725D01*
X26254Y148773D01*
X26242Y148822D01*
X26234Y148872D01*
X26229Y148922D01*
X26227Y148973D01*
X26460Y148429D02*
X27779Y146877D01*
X26227Y146877D01*
X46282Y135129D02*
X46902Y135129D01*
X46951Y135131D01*
X46999Y135137D01*
X47047Y135146D01*
X47094Y135159D01*
X47140Y135176D01*
X47184Y135197D01*
X47226Y135221D01*
X47267Y135248D01*
X47305Y135278D01*
X47341Y135311D01*
X47374Y135347D01*
X47404Y135385D01*
X47431Y135426D01*
X47455Y135468D01*
X47476Y135512D01*
X47493Y135558D01*
X47506Y135605D01*
X47515Y135653D01*
X47521Y135701D01*
X47523Y135750D01*
X47523Y137302D01*
X47521Y137351D01*
X47515Y137399D01*
X47506Y137447D01*
X47493Y137494D01*
X47476Y137540D01*
X47455Y137584D01*
X47431Y137626D01*
X47404Y137667D01*
X47374Y137705D01*
X47341Y137741D01*
X47305Y137774D01*
X47267Y137804D01*
X47226Y137831D01*
X47184Y137855D01*
X47140Y137876D01*
X47094Y137893D01*
X47047Y137906D01*
X46999Y137915D01*
X46951Y137921D01*
X46902Y137923D01*
X46282Y137923D01*
X45229Y135129D02*
X44453Y135129D01*
X44398Y135131D01*
X44343Y135137D01*
X44288Y135147D01*
X44234Y135160D01*
X44182Y135178D01*
X44131Y135199D01*
X44081Y135224D01*
X44033Y135252D01*
X43988Y135284D01*
X43945Y135319D01*
X43904Y135356D01*
X43867Y135397D01*
X43832Y135440D01*
X43800Y135485D01*
X43772Y135533D01*
X43747Y135583D01*
X43726Y135634D01*
X43708Y135686D01*
X43695Y135740D01*
X43685Y135795D01*
X43679Y135850D01*
X43677Y135905D01*
X43679Y135960D01*
X43685Y136015D01*
X43695Y136070D01*
X43708Y136124D01*
X43726Y136176D01*
X43747Y136227D01*
X43772Y136277D01*
X43800Y136325D01*
X43832Y136370D01*
X43867Y136413D01*
X43904Y136454D01*
X43945Y136491D01*
X43988Y136526D01*
X44033Y136558D01*
X44081Y136586D01*
X44131Y136611D01*
X44182Y136632D01*
X44234Y136650D01*
X44288Y136663D01*
X44343Y136673D01*
X44398Y136679D01*
X44453Y136681D01*
X44298Y137923D02*
X45229Y137923D01*
X44298Y137923D02*
X44249Y137921D01*
X44201Y137915D01*
X44153Y137906D01*
X44106Y137893D01*
X44060Y137876D01*
X44016Y137855D01*
X43974Y137831D01*
X43933Y137804D01*
X43895Y137774D01*
X43859Y137741D01*
X43826Y137705D01*
X43796Y137667D01*
X43769Y137626D01*
X43745Y137584D01*
X43724Y137540D01*
X43707Y137494D01*
X43694Y137447D01*
X43685Y137399D01*
X43679Y137351D01*
X43677Y137302D01*
X43679Y137253D01*
X43685Y137205D01*
X43694Y137157D01*
X43707Y137110D01*
X43724Y137064D01*
X43745Y137020D01*
X43769Y136978D01*
X43796Y136937D01*
X43826Y136899D01*
X43859Y136863D01*
X43895Y136830D01*
X43933Y136800D01*
X43974Y136773D01*
X44016Y136749D01*
X44060Y136728D01*
X44106Y136711D01*
X44153Y136698D01*
X44201Y136689D01*
X44249Y136683D01*
X44298Y136681D01*
X44919Y136681D01*
X18502Y127027D02*
X17881Y127027D01*
X18502Y127027D02*
X18551Y127029D01*
X18599Y127035D01*
X18647Y127044D01*
X18694Y127057D01*
X18740Y127074D01*
X18784Y127095D01*
X18826Y127119D01*
X18867Y127146D01*
X18905Y127176D01*
X18941Y127209D01*
X18974Y127245D01*
X19004Y127283D01*
X19031Y127324D01*
X19055Y127366D01*
X19076Y127410D01*
X19093Y127456D01*
X19106Y127503D01*
X19115Y127551D01*
X19121Y127599D01*
X19123Y127648D01*
X19123Y129200D01*
X19121Y129249D01*
X19115Y129297D01*
X19106Y129345D01*
X19093Y129392D01*
X19076Y129438D01*
X19055Y129482D01*
X19031Y129524D01*
X19004Y129565D01*
X18974Y129603D01*
X18941Y129639D01*
X18905Y129672D01*
X18867Y129702D01*
X18826Y129729D01*
X18784Y129753D01*
X18740Y129774D01*
X18694Y129791D01*
X18647Y129804D01*
X18599Y129813D01*
X18551Y129819D01*
X18502Y129821D01*
X17881Y129821D01*
X16829Y127027D02*
X15898Y127027D01*
X15849Y127029D01*
X15801Y127035D01*
X15753Y127044D01*
X15706Y127057D01*
X15660Y127074D01*
X15616Y127095D01*
X15574Y127118D01*
X15533Y127146D01*
X15495Y127176D01*
X15459Y127209D01*
X15426Y127245D01*
X15396Y127283D01*
X15369Y127323D01*
X15345Y127366D01*
X15324Y127410D01*
X15307Y127456D01*
X15294Y127503D01*
X15285Y127551D01*
X15279Y127599D01*
X15277Y127648D01*
X15277Y127958D01*
X15279Y128007D01*
X15285Y128055D01*
X15294Y128103D01*
X15307Y128150D01*
X15324Y128196D01*
X15345Y128240D01*
X15369Y128282D01*
X15396Y128323D01*
X15426Y128361D01*
X15459Y128397D01*
X15495Y128430D01*
X15533Y128460D01*
X15574Y128488D01*
X15616Y128511D01*
X15660Y128532D01*
X15706Y128549D01*
X15753Y128562D01*
X15801Y128571D01*
X15849Y128577D01*
X15898Y128579D01*
X16829Y128579D01*
X16829Y129821D01*
X15277Y129821D01*
X182432Y81929D02*
X183052Y81929D01*
X183101Y81931D01*
X183149Y81937D01*
X183197Y81946D01*
X183244Y81959D01*
X183290Y81976D01*
X183334Y81997D01*
X183376Y82021D01*
X183417Y82048D01*
X183455Y82078D01*
X183491Y82111D01*
X183524Y82147D01*
X183554Y82185D01*
X183581Y82226D01*
X183605Y82268D01*
X183626Y82312D01*
X183643Y82358D01*
X183656Y82405D01*
X183665Y82453D01*
X183671Y82501D01*
X183673Y82550D01*
X183673Y84102D01*
X183671Y84151D01*
X183665Y84199D01*
X183656Y84247D01*
X183643Y84294D01*
X183626Y84340D01*
X183605Y84384D01*
X183581Y84426D01*
X183554Y84467D01*
X183524Y84505D01*
X183491Y84541D01*
X183455Y84574D01*
X183417Y84604D01*
X183376Y84631D01*
X183334Y84655D01*
X183290Y84676D01*
X183244Y84693D01*
X183197Y84706D01*
X183149Y84715D01*
X183101Y84721D01*
X183052Y84723D01*
X182432Y84723D01*
X181379Y83481D02*
X180448Y83481D01*
X180399Y83479D01*
X180351Y83473D01*
X180303Y83464D01*
X180256Y83451D01*
X180210Y83434D01*
X180166Y83413D01*
X180124Y83389D01*
X180083Y83362D01*
X180045Y83332D01*
X180009Y83299D01*
X179976Y83263D01*
X179946Y83225D01*
X179919Y83184D01*
X179895Y83142D01*
X179874Y83098D01*
X179857Y83052D01*
X179844Y83005D01*
X179835Y82957D01*
X179829Y82909D01*
X179827Y82860D01*
X179827Y82705D01*
X179829Y82650D01*
X179835Y82595D01*
X179845Y82540D01*
X179858Y82486D01*
X179876Y82434D01*
X179897Y82383D01*
X179922Y82333D01*
X179950Y82285D01*
X179982Y82240D01*
X180017Y82197D01*
X180054Y82156D01*
X180095Y82119D01*
X180138Y82084D01*
X180183Y82052D01*
X180231Y82024D01*
X180281Y81999D01*
X180332Y81978D01*
X180384Y81960D01*
X180438Y81947D01*
X180493Y81937D01*
X180548Y81931D01*
X180603Y81929D01*
X180658Y81931D01*
X180713Y81937D01*
X180768Y81947D01*
X180822Y81960D01*
X180874Y81978D01*
X180925Y81999D01*
X180975Y82024D01*
X181023Y82052D01*
X181068Y82084D01*
X181111Y82119D01*
X181152Y82156D01*
X181189Y82197D01*
X181224Y82240D01*
X181256Y82285D01*
X181284Y82333D01*
X181309Y82383D01*
X181330Y82434D01*
X181348Y82486D01*
X181361Y82540D01*
X181371Y82595D01*
X181377Y82650D01*
X181379Y82705D01*
X181379Y83481D01*
X181377Y83551D01*
X181371Y83620D01*
X181361Y83689D01*
X181348Y83757D01*
X181330Y83825D01*
X181309Y83891D01*
X181284Y83956D01*
X181256Y84020D01*
X181224Y84082D01*
X181189Y84142D01*
X181150Y84200D01*
X181108Y84255D01*
X181063Y84309D01*
X181015Y84359D01*
X180965Y84407D01*
X180911Y84452D01*
X180856Y84494D01*
X180798Y84533D01*
X180738Y84568D01*
X180676Y84600D01*
X180612Y84628D01*
X180547Y84653D01*
X180481Y84674D01*
X180413Y84692D01*
X180345Y84705D01*
X180276Y84715D01*
X180207Y84721D01*
X180137Y84723D01*
X139352Y144077D02*
X138731Y144077D01*
X139352Y144077D02*
X139401Y144079D01*
X139449Y144085D01*
X139497Y144094D01*
X139544Y144107D01*
X139590Y144124D01*
X139634Y144145D01*
X139676Y144169D01*
X139717Y144196D01*
X139755Y144226D01*
X139791Y144259D01*
X139824Y144295D01*
X139854Y144333D01*
X139881Y144374D01*
X139905Y144416D01*
X139926Y144460D01*
X139943Y144506D01*
X139956Y144553D01*
X139965Y144601D01*
X139971Y144649D01*
X139973Y144698D01*
X139973Y146250D01*
X139971Y146299D01*
X139965Y146347D01*
X139956Y146395D01*
X139943Y146442D01*
X139926Y146488D01*
X139905Y146532D01*
X139881Y146574D01*
X139854Y146615D01*
X139824Y146653D01*
X139791Y146689D01*
X139755Y146722D01*
X139717Y146752D01*
X139676Y146779D01*
X139634Y146803D01*
X139590Y146824D01*
X139544Y146841D01*
X139497Y146854D01*
X139449Y146863D01*
X139401Y146869D01*
X139352Y146871D01*
X138731Y146871D01*
X137679Y146871D02*
X137679Y146561D01*
X137679Y146871D02*
X136127Y146871D01*
X136903Y144077D01*
D10*
X133538Y117324D03*
D11*
X126500Y115424D02*
X81500Y115424D01*
X81500Y46576D02*
X126500Y46576D01*
D12*
X153382Y113077D02*
X153382Y115095D01*
X153382Y113077D02*
X153380Y113022D01*
X153374Y112967D01*
X153364Y112912D01*
X153351Y112858D01*
X153333Y112806D01*
X153312Y112755D01*
X153287Y112705D01*
X153259Y112657D01*
X153227Y112612D01*
X153192Y112569D01*
X153155Y112528D01*
X153114Y112491D01*
X153071Y112456D01*
X153026Y112424D01*
X152978Y112396D01*
X152928Y112371D01*
X152877Y112350D01*
X152825Y112332D01*
X152771Y112319D01*
X152716Y112309D01*
X152661Y112303D01*
X152606Y112301D01*
X152551Y112303D01*
X152496Y112309D01*
X152441Y112319D01*
X152387Y112332D01*
X152335Y112350D01*
X152284Y112371D01*
X152234Y112396D01*
X152186Y112424D01*
X152141Y112456D01*
X152098Y112491D01*
X152057Y112528D01*
X152020Y112569D01*
X151985Y112612D01*
X151953Y112657D01*
X151925Y112705D01*
X151900Y112755D01*
X151879Y112806D01*
X151861Y112858D01*
X151848Y112912D01*
X151838Y112967D01*
X151832Y113022D01*
X151830Y113077D01*
X151830Y115095D01*
X149954Y115095D02*
X149954Y112301D01*
X149954Y113698D02*
X150342Y113931D01*
X150343Y113930D02*
X150377Y113953D01*
X150410Y113979D01*
X150440Y114008D01*
X150467Y114039D01*
X150492Y114073D01*
X150513Y114109D01*
X150531Y114146D01*
X150545Y114185D01*
X150556Y114225D01*
X150564Y114266D01*
X150568Y114307D01*
X150568Y114349D01*
X150564Y114390D01*
X150556Y114431D01*
X150545Y114471D01*
X150531Y114510D01*
X150513Y114548D01*
X150491Y114584D01*
X150467Y114617D01*
X150439Y114649D01*
X150409Y114677D01*
X150377Y114703D01*
X150342Y114726D01*
X150306Y114746D01*
X150267Y114762D01*
X150228Y114775D01*
X150187Y114784D01*
X150187Y114785D02*
X150120Y114795D01*
X150052Y114802D01*
X149984Y114805D01*
X149915Y114804D01*
X149847Y114799D01*
X149780Y114791D01*
X149713Y114779D01*
X149646Y114763D01*
X149581Y114743D01*
X149517Y114720D01*
X149454Y114693D01*
X149393Y114663D01*
X149333Y114630D01*
X149954Y113698D02*
X149566Y113465D01*
X149566Y113466D02*
X149532Y113443D01*
X149499Y113417D01*
X149469Y113388D01*
X149442Y113357D01*
X149417Y113323D01*
X149396Y113287D01*
X149378Y113250D01*
X149364Y113211D01*
X149353Y113171D01*
X149345Y113130D01*
X149341Y113089D01*
X149341Y113047D01*
X149345Y113006D01*
X149353Y112965D01*
X149364Y112925D01*
X149378Y112886D01*
X149396Y112848D01*
X149418Y112812D01*
X149442Y112779D01*
X149469Y112747D01*
X149500Y112719D01*
X149532Y112693D01*
X149567Y112670D01*
X149603Y112650D01*
X149642Y112634D01*
X149681Y112621D01*
X149722Y112612D01*
X149721Y112611D02*
X149788Y112601D01*
X149856Y112594D01*
X149924Y112591D01*
X149993Y112592D01*
X150061Y112597D01*
X150128Y112605D01*
X150196Y112617D01*
X150262Y112633D01*
X150327Y112653D01*
X150391Y112676D01*
X150454Y112703D01*
X150515Y112733D01*
X150575Y112766D01*
X148170Y112922D02*
X147549Y115095D01*
X148170Y112922D02*
X146618Y112922D01*
X147084Y113543D02*
X147084Y112301D01*
X3329Y20168D02*
X3329Y19548D01*
X3331Y19499D01*
X3337Y19451D01*
X3346Y19403D01*
X3359Y19356D01*
X3376Y19310D01*
X3397Y19266D01*
X3421Y19224D01*
X3448Y19183D01*
X3478Y19145D01*
X3511Y19109D01*
X3547Y19076D01*
X3585Y19046D01*
X3626Y19019D01*
X3668Y18995D01*
X3712Y18974D01*
X3758Y18957D01*
X3805Y18944D01*
X3853Y18935D01*
X3901Y18929D01*
X3950Y18927D01*
X5502Y18927D01*
X5551Y18929D01*
X5599Y18935D01*
X5647Y18944D01*
X5694Y18957D01*
X5740Y18974D01*
X5784Y18995D01*
X5826Y19019D01*
X5867Y19046D01*
X5905Y19076D01*
X5941Y19109D01*
X5974Y19145D01*
X6004Y19183D01*
X6031Y19224D01*
X6055Y19266D01*
X6076Y19310D01*
X6093Y19356D01*
X6106Y19403D01*
X6115Y19451D01*
X6121Y19499D01*
X6123Y19548D01*
X6123Y20168D01*
X6123Y21842D02*
X3950Y21221D01*
X3950Y22773D01*
X4571Y22307D02*
X3329Y22307D01*
X20632Y120829D02*
X21252Y120829D01*
X21301Y120831D01*
X21349Y120837D01*
X21397Y120846D01*
X21444Y120859D01*
X21490Y120876D01*
X21534Y120897D01*
X21576Y120921D01*
X21617Y120948D01*
X21655Y120978D01*
X21691Y121011D01*
X21724Y121047D01*
X21754Y121085D01*
X21781Y121126D01*
X21805Y121168D01*
X21826Y121212D01*
X21843Y121258D01*
X21856Y121305D01*
X21865Y121353D01*
X21871Y121401D01*
X21873Y121450D01*
X21873Y123002D01*
X21871Y123051D01*
X21865Y123099D01*
X21856Y123147D01*
X21843Y123194D01*
X21826Y123240D01*
X21805Y123284D01*
X21781Y123326D01*
X21754Y123367D01*
X21724Y123405D01*
X21691Y123441D01*
X21655Y123474D01*
X21617Y123504D01*
X21576Y123531D01*
X21534Y123555D01*
X21490Y123576D01*
X21444Y123593D01*
X21397Y123606D01*
X21349Y123615D01*
X21301Y123621D01*
X21252Y123623D01*
X20632Y123623D01*
X19579Y121605D02*
X19577Y121660D01*
X19571Y121715D01*
X19561Y121770D01*
X19548Y121824D01*
X19530Y121876D01*
X19509Y121927D01*
X19484Y121977D01*
X19456Y122025D01*
X19424Y122070D01*
X19389Y122113D01*
X19352Y122154D01*
X19311Y122191D01*
X19268Y122226D01*
X19223Y122258D01*
X19175Y122286D01*
X19125Y122311D01*
X19074Y122332D01*
X19022Y122350D01*
X18968Y122363D01*
X18913Y122373D01*
X18858Y122379D01*
X18803Y122381D01*
X18748Y122379D01*
X18693Y122373D01*
X18638Y122363D01*
X18584Y122350D01*
X18532Y122332D01*
X18481Y122311D01*
X18431Y122286D01*
X18383Y122258D01*
X18338Y122226D01*
X18295Y122191D01*
X18254Y122154D01*
X18217Y122113D01*
X18182Y122070D01*
X18150Y122025D01*
X18122Y121977D01*
X18097Y121927D01*
X18076Y121876D01*
X18058Y121824D01*
X18045Y121770D01*
X18035Y121715D01*
X18029Y121660D01*
X18027Y121605D01*
X18029Y121550D01*
X18035Y121495D01*
X18045Y121440D01*
X18058Y121386D01*
X18076Y121334D01*
X18097Y121283D01*
X18122Y121233D01*
X18150Y121185D01*
X18182Y121140D01*
X18217Y121097D01*
X18254Y121056D01*
X18295Y121019D01*
X18338Y120984D01*
X18383Y120952D01*
X18431Y120924D01*
X18481Y120899D01*
X18532Y120878D01*
X18584Y120860D01*
X18638Y120847D01*
X18693Y120837D01*
X18748Y120831D01*
X18803Y120829D01*
X18858Y120831D01*
X18913Y120837D01*
X18968Y120847D01*
X19022Y120860D01*
X19074Y120878D01*
X19125Y120899D01*
X19175Y120924D01*
X19223Y120952D01*
X19268Y120984D01*
X19311Y121019D01*
X19352Y121056D01*
X19389Y121097D01*
X19424Y121140D01*
X19456Y121185D01*
X19484Y121233D01*
X19509Y121283D01*
X19530Y121334D01*
X19548Y121386D01*
X19561Y121440D01*
X19571Y121495D01*
X19577Y121550D01*
X19579Y121605D01*
X19424Y123002D02*
X19422Y123051D01*
X19416Y123099D01*
X19407Y123147D01*
X19394Y123194D01*
X19377Y123240D01*
X19356Y123284D01*
X19332Y123326D01*
X19305Y123367D01*
X19275Y123405D01*
X19242Y123441D01*
X19206Y123474D01*
X19168Y123504D01*
X19127Y123531D01*
X19085Y123555D01*
X19041Y123576D01*
X18995Y123593D01*
X18948Y123606D01*
X18900Y123615D01*
X18852Y123621D01*
X18803Y123623D01*
X18754Y123621D01*
X18706Y123615D01*
X18658Y123606D01*
X18611Y123593D01*
X18565Y123576D01*
X18521Y123555D01*
X18479Y123531D01*
X18438Y123504D01*
X18400Y123474D01*
X18364Y123441D01*
X18331Y123405D01*
X18301Y123367D01*
X18274Y123326D01*
X18250Y123284D01*
X18229Y123240D01*
X18212Y123194D01*
X18199Y123147D01*
X18190Y123099D01*
X18184Y123051D01*
X18182Y123002D01*
X18184Y122953D01*
X18190Y122905D01*
X18199Y122857D01*
X18212Y122810D01*
X18229Y122764D01*
X18250Y122720D01*
X18274Y122678D01*
X18301Y122637D01*
X18331Y122599D01*
X18364Y122563D01*
X18400Y122530D01*
X18438Y122500D01*
X18479Y122473D01*
X18521Y122449D01*
X18565Y122428D01*
X18611Y122411D01*
X18658Y122398D01*
X18706Y122389D01*
X18754Y122383D01*
X18803Y122381D01*
X18852Y122383D01*
X18900Y122389D01*
X18948Y122398D01*
X18995Y122411D01*
X19041Y122428D01*
X19085Y122449D01*
X19127Y122473D01*
X19168Y122500D01*
X19206Y122530D01*
X19242Y122563D01*
X19275Y122599D01*
X19305Y122637D01*
X19332Y122678D01*
X19356Y122720D01*
X19377Y122764D01*
X19394Y122810D01*
X19407Y122857D01*
X19416Y122905D01*
X19422Y122953D01*
X19424Y123002D01*
D10*
X192599Y53000D03*
D11*
X188159Y64599D02*
X188159Y67401D01*
X149841Y67401D02*
X149841Y64599D01*
X167599Y88659D02*
X170401Y88659D01*
X170401Y43341D02*
X167599Y43341D01*
D12*
X163382Y90912D02*
X163382Y92930D01*
X163382Y90912D02*
X163380Y90857D01*
X163374Y90802D01*
X163364Y90747D01*
X163351Y90693D01*
X163333Y90641D01*
X163312Y90590D01*
X163287Y90540D01*
X163259Y90492D01*
X163227Y90447D01*
X163192Y90404D01*
X163155Y90363D01*
X163114Y90326D01*
X163071Y90291D01*
X163026Y90259D01*
X162978Y90231D01*
X162928Y90206D01*
X162877Y90185D01*
X162825Y90167D01*
X162771Y90154D01*
X162716Y90144D01*
X162661Y90138D01*
X162606Y90136D01*
X162551Y90138D01*
X162496Y90144D01*
X162441Y90154D01*
X162387Y90167D01*
X162335Y90185D01*
X162284Y90206D01*
X162234Y90231D01*
X162186Y90259D01*
X162141Y90291D01*
X162098Y90326D01*
X162057Y90363D01*
X162020Y90404D01*
X161985Y90447D01*
X161953Y90492D01*
X161925Y90540D01*
X161900Y90590D01*
X161879Y90641D01*
X161861Y90693D01*
X161848Y90747D01*
X161838Y90802D01*
X161832Y90857D01*
X161830Y90912D01*
X161830Y92930D01*
X159954Y92930D02*
X159954Y90136D01*
X159954Y91533D02*
X160342Y91766D01*
X160343Y91765D02*
X160377Y91788D01*
X160410Y91814D01*
X160440Y91843D01*
X160467Y91874D01*
X160492Y91908D01*
X160513Y91944D01*
X160531Y91981D01*
X160545Y92020D01*
X160556Y92060D01*
X160564Y92101D01*
X160568Y92142D01*
X160568Y92184D01*
X160564Y92225D01*
X160556Y92266D01*
X160545Y92306D01*
X160531Y92345D01*
X160513Y92383D01*
X160491Y92419D01*
X160467Y92452D01*
X160439Y92484D01*
X160409Y92512D01*
X160377Y92538D01*
X160342Y92561D01*
X160306Y92581D01*
X160267Y92597D01*
X160228Y92610D01*
X160187Y92619D01*
X160187Y92620D02*
X160120Y92630D01*
X160052Y92637D01*
X159984Y92640D01*
X159915Y92639D01*
X159847Y92634D01*
X159780Y92626D01*
X159713Y92614D01*
X159646Y92598D01*
X159581Y92578D01*
X159517Y92555D01*
X159454Y92528D01*
X159393Y92498D01*
X159333Y92465D01*
X159954Y91533D02*
X159566Y91300D01*
X159566Y91301D02*
X159532Y91278D01*
X159499Y91252D01*
X159469Y91223D01*
X159442Y91192D01*
X159417Y91158D01*
X159396Y91122D01*
X159378Y91085D01*
X159364Y91046D01*
X159353Y91006D01*
X159345Y90965D01*
X159341Y90924D01*
X159341Y90882D01*
X159345Y90841D01*
X159353Y90800D01*
X159364Y90760D01*
X159378Y90721D01*
X159396Y90683D01*
X159418Y90647D01*
X159442Y90614D01*
X159469Y90582D01*
X159500Y90554D01*
X159532Y90528D01*
X159567Y90505D01*
X159603Y90485D01*
X159642Y90469D01*
X159681Y90456D01*
X159722Y90447D01*
X159721Y90446D02*
X159788Y90436D01*
X159856Y90429D01*
X159924Y90426D01*
X159993Y90427D01*
X160061Y90432D01*
X160128Y90440D01*
X160196Y90452D01*
X160262Y90468D01*
X160327Y90488D01*
X160391Y90511D01*
X160454Y90538D01*
X160515Y90568D01*
X160575Y90601D01*
X158170Y90136D02*
X157239Y90136D01*
X157190Y90138D01*
X157142Y90144D01*
X157094Y90153D01*
X157047Y90166D01*
X157001Y90183D01*
X156957Y90204D01*
X156915Y90227D01*
X156874Y90255D01*
X156836Y90285D01*
X156800Y90318D01*
X156767Y90354D01*
X156737Y90392D01*
X156710Y90432D01*
X156686Y90475D01*
X156665Y90519D01*
X156648Y90565D01*
X156635Y90612D01*
X156626Y90660D01*
X156620Y90708D01*
X156618Y90757D01*
X156618Y91067D01*
X156620Y91116D01*
X156626Y91164D01*
X156635Y91212D01*
X156648Y91259D01*
X156665Y91305D01*
X156686Y91349D01*
X156710Y91391D01*
X156737Y91432D01*
X156767Y91470D01*
X156800Y91506D01*
X156836Y91539D01*
X156874Y91569D01*
X156915Y91597D01*
X156957Y91620D01*
X157001Y91641D01*
X157047Y91658D01*
X157094Y91671D01*
X157142Y91680D01*
X157190Y91686D01*
X157239Y91688D01*
X158170Y91688D01*
X158170Y92930D01*
X156618Y92930D01*
M02*
